<?xml version="1.0" encoding="utf-8"?>
<!-- Generator: Adobe Illustrator 23.0.0, SVG Export Plug-In . SVG Version: 6.00 Build 0)  -->
<svg version="1.1"
	 id="svg17" xmlns:cc="http://creativecommons.org/ns#" xmlns:dc="http://purl.org/dc/elements/1.1/" xmlns:rdf="http://www.w3.org/1999/02/22-rdf-syntax-ns#" xmlns:svg="http://www.w3.org/2000/svg"
	 xmlns="http://www.w3.org/2000/svg" xmlns:xlink="http://www.w3.org/1999/xlink" x="0px" y="0px" viewBox="0 0 170.1 45.4"
	 style="enable-background:new 0 0 170.1 45.4;" xml:space="preserve">
<style type="text/css">
	.st0{fill-rule:evenodd;clip-rule:evenodd;fill:#92CFAE;}
	.st1{fill-rule:evenodd;clip-rule:evenodd;fill:#2A8288;}
	.st2{fill-rule:evenodd;clip-rule:evenodd;fill:#222222;}
</style>
<title  id="title2">Group 2</title>
<desc  id="desc4">Created with Sketch.</desc>
<g id="Page-1">
	<g id="Desk" transform="translate(-25.000000, -57.000000)">
		<g id="Group-2" transform="translate(25.000000, 57.000000)">
			<g id="Group">
				<polygon id="Fill-1" class="st0" points="0,0 0,42.3 42.5,0 				"/>
				<polygon id="Fill-2" class="st1" points="3,45.4 45.6,45.4 45.6,3 				"/>
			</g>
			<path id="Fill-3" class="st2" d="M69.5,21.7c4.9,0,7.6-2.4,7.6-6.9v-0.3c0-4.8-2.8-6.7-7.6-6.7h-5.1v13.9H69.5z M54.3,0h15.5
				c10.9,0,17.1,4.9,17.1,14.5v0.3c0,9.6-6.6,14.1-16.8,14.1h-5.7v16.5H54.3V0z"/>
			<path id="Fill-5" class="st2" d="M106.9,37.6c4.9,0,7.3-2.2,7.3-6.3V31c0-4.1-2.5-6.3-7.6-6.3H101v12.8H106.9z M107.2,45.4H91.1
				V0h28.6v8H101l-0.1,9.5h6.6c10.1,0,16.2,4.5,16.2,13.6v0.3C123.7,40.2,118.1,45.4,107.2,45.4L107.2,45.4z"/>
			<polygon id="Fill-8" class="st2" points="131,0.1 141.6,0.1 141.6,19.6 157.9,0 169.2,0 150.7,21.5 170.1,45.4 157.7,45.4 
				141.6,25 141.6,45.4 131,45.4 			"/>
		</g>
	</g>
</g>
</svg>
